<svg width="103" height="25" viewBox="0 0 103 25" fill="none" xmlns="http://www.w3.org/2000/svg">
<path d="M0.705077 24.598L5.45007 6.48541L10.9512 5.90722L13.5408 15.6258L13.9809 15.5795L16.6723 5.30591L21.5683 4.79132L16.8233 22.9039L11.3222 23.4821L8.84416 13.4396L8.37657 13.4888L5.60106 24.0834L0.705077 24.598Z" fill="#F4F6FF"/>
<path d="M23.3019 22.5352C21.7432 22.699 20.6723 22.4647 20.089 21.8322C19.5058 21.1997 19.4104 20.1343 19.8029 18.6361C20.0832 17.5659 20.4999 16.7243 21.0528 16.1111C21.6241 15.496 22.3343 15.0311 23.1836 14.7164C24.0328 14.4016 25.0146 14.1597 26.1288 13.9905L28.9559 13.5113L29.1101 12.9227C29.2269 12.4768 29.162 12.18 28.9153 12.0325C28.687 11.8831 28.3161 11.8353 27.8027 11.8893C27.2526 11.9471 26.6244 12.0305 25.9183 12.1394C25.2121 12.2483 24.522 12.3642 23.8478 12.4871C23.1737 12.61 22.582 12.7242 22.0729 12.8297L22.7695 9.66044C23.3156 9.48163 23.9534 9.29317 24.6829 9.09508C25.4308 8.89506 26.1991 8.71891 26.988 8.56662C27.7815 8.39649 28.5175 8.27577 29.196 8.20446C30.4246 8.07533 31.4439 8.09829 32.254 8.27332C33.0824 8.44642 33.6394 8.83885 33.9249 9.45061C34.2288 10.0604 34.2242 10.9629 33.9111 12.1579L32.4253 17.8298C32.4382 17.9845 32.5224 18.1058 32.6777 18.1935C32.8514 18.2793 33.0436 18.3285 33.2543 18.341L32.3797 21.3729C31.9256 21.4727 31.4487 21.5575 30.9489 21.6274C30.4445 21.7151 30.0594 21.7556 29.7937 21.7488C29.2483 21.7888 28.8155 21.7389 28.4955 21.5991C28.1802 21.4414 27.9633 21.2821 27.845 21.1211C27.5373 21.2748 27.1332 21.4561 26.6327 21.6648C26.1369 21.8556 25.5999 22.0335 25.0217 22.1983C24.4436 22.3632 23.8703 22.4755 23.3019 22.5352ZM25.3672 19.144C25.6422 19.1151 25.9151 19.0604 26.1859 18.9799C26.4796 18.8796 26.7574 18.7724 27.0191 18.6582C27.2992 18.542 27.5219 18.4405 27.6873 18.3538L28.262 16.1599L26.2051 16.5582C25.7556 16.6402 25.3905 16.8086 25.1097 17.0636C24.852 17.2989 24.6717 17.6127 24.5689 18.0051C24.4661 18.3975 24.476 18.7 24.5986 18.9126C24.7259 19.1073 24.9821 19.1845 25.3672 19.144Z" fill="#F4F6FF"/>
<path d="M37.7194 20.7077L41.4341 6.52792L36.9231 7.00204L37.9534 3.06917L51.7062 1.6237L50.6759 5.55657L46.33 6.01334L42.6153 20.1931L37.7194 20.7077Z" fill="#F4F6FF"/>
<path d="M48.4873 19.5759L52.0128 6.11853L56.7162 5.62418L56.3378 7.0689C56.6919 6.8062 57.1034 6.52879 57.5722 6.23668C58.0641 5.92481 58.5649 5.64669 59.0747 5.40231C59.5845 5.15793 60.0482 4.98778 60.4656 4.89188L59.3231 9.25281C58.9287 9.32896 58.4836 9.46247 57.9878 9.65334C57.492 9.84421 57.0099 10.051 56.5414 10.2737C56.0912 10.4944 55.6916 10.6925 55.3425 10.868L53.1908 19.0815L48.4873 19.5759Z" fill="#F4F6FF"/>
<path d="M62.3576 18.4303C60.7989 18.5941 59.728 18.3598 59.1447 17.7273C58.5615 17.0948 58.4661 16.0294 58.8586 14.5312C59.1389 13.461 59.5556 12.6193 60.1085 12.0062C60.6798 11.3911 61.39 10.9262 62.2393 10.6114C63.0885 10.2967 64.0703 10.0548 65.1845 9.8856L68.0116 9.40634L68.1658 8.81774C68.2826 8.37184 68.2177 8.07513 67.971 7.9276C67.7427 7.77815 67.3718 7.73041 66.8584 7.78437C66.3083 7.84219 65.6801 7.92556 64.974 8.03446C64.2678 8.14337 63.5777 8.25927 62.9035 8.38217C62.2294 8.50506 61.6377 8.61928 61.1286 8.72482L61.8252 5.55552C62.3713 5.37671 63.0091 5.18825 63.7386 4.99016C64.4865 4.79014 65.2548 4.61399 66.0437 4.4617C66.8372 4.29157 67.5732 4.17085 68.2517 4.09954C69.4803 3.97041 70.4996 3.99337 71.3097 4.1684C72.1381 4.3415 72.6951 4.73393 72.9806 5.34569C73.2845 5.95551 73.2799 6.85794 72.9669 8.05296L71.481 13.7249C71.4939 13.8796 71.5781 14.0008 71.7334 14.0886C71.9071 14.1744 72.0993 14.2236 72.31 14.2361L71.4355 17.268C70.9813 17.3678 70.5044 17.4526 70.0046 17.5225C69.5002 17.6102 69.1151 17.6507 68.8494 17.6439C68.304 17.6839 67.8712 17.634 67.5512 17.4942C67.2359 17.3365 67.0191 17.1772 66.9007 17.0162C66.593 17.1699 66.1889 17.3511 65.6884 17.5599C65.1926 17.7507 64.6556 17.9286 64.0775 18.0934C63.4993 18.2583 62.926 18.3705 62.3576 18.4303ZM64.4229 15.0391C64.6979 15.0102 64.9708 14.9555 65.2416 14.875C65.5353 14.7747 65.8131 14.6675 66.0748 14.5532C66.3549 14.4371 66.5776 14.3356 66.743 14.2489L67.3177 12.055L65.2608 12.4533C64.8113 12.5353 64.4462 12.7037 64.1654 12.9587C63.9077 13.1939 63.7274 13.5078 63.6246 13.9002C63.5218 14.2926 63.5317 14.595 63.6543 14.8076C63.7816 15.0024 64.0378 15.0795 64.4229 15.0391Z" fill="#F4F6FF"/>
<path d="M75.1247 16.7762L75.7621 3.62238L80.7956 3.09333L80.0398 12.5131L80.6449 12.4495L84.9214 2.65969L89.6799 2.15956L83.2664 15.9205L75.1247 16.7762Z" fill="#F4F6FF"/>
<path d="M93.5907 15.1476C91.9771 15.3172 90.7566 15.2113 89.9292 14.8299C89.1065 14.4307 88.6175 13.745 88.462 12.7726C88.325 11.7984 88.4597 10.5354 88.8662 8.98363C89.2914 7.36054 89.8826 5.98885 90.6397 4.86858C91.4151 3.74637 92.368 2.86569 93.4984 2.22653C94.6288 1.58737 95.955 1.18781 97.4769 1.02784C99.659 0.798494 101.169 1.12541 102.008 2.0086C102.865 2.88986 103.011 4.40958 102.445 6.56775L101.636 8.83823L93.3022 9.71419C93.1337 10.4257 93.1585 10.9434 93.3768 11.2674C93.5998 11.5735 94.0963 11.6861 94.8665 11.6052C95.4533 11.5435 96.1066 11.4662 96.8264 11.3732C97.5692 11.2604 98.3029 11.1486 99.0273 11.0378C99.7702 10.925 100.394 10.8248 100.898 10.737L100.202 13.8022C99.7021 13.9415 99.0713 14.1032 98.3098 14.2873C97.5483 14.4714 96.7548 14.6415 95.9292 14.7977C95.1037 14.9538 94.3242 15.0705 93.5907 15.1476ZM93.9826 7.0149L97.8334 6.61017C98.0717 5.70053 98.0909 5.08276 97.891 4.75687C97.6957 4.41315 97.268 4.27598 96.6078 4.34537C95.9294 4.41668 95.3829 4.66491 94.9684 5.09007C94.5585 5.49739 94.2299 6.139 93.9826 7.0149Z" fill="#F4F6FF"/>
</svg>
